<?xml version="1.0" encoding="utf-8"?>
<!-- Generator: Adobe Illustrator 25.0.0, SVG Export Plug-In . SVG Version: 6.00 Build 0)  -->
<svg version="1.1" id="Layer_1" xmlns="http://www.w3.org/2000/svg" xmlns:xlink="http://www.w3.org/1999/xlink" x="0px" y="0px"
	 viewBox="0 0 500 500" style="enable-background:new 0 0 500 500;" xml:space="preserve">
<style type="text/css">
	.st0{display:none;}
	.st1{display:inline;}
	.st2{fill:none;stroke:#000000;stroke-width:16;stroke-linecap:round;stroke-linejoin:round;stroke-miterlimit:22.4;}
</style>
<g class="st0">
	<path class="st1" d="M335.5,77.4c-5.6-2.8-12.3-2.4-17.5,1.1c-5.2,3.5-8.2,9.4-7.8,15.7c0.4,6.2,4.1,11.8,9.7,14.6
		c42.7,21.2,73.5,60.6,83.7,107.1c10.2,46.5-1.2,95.2-31,132.4c-29.9,37.1-74.9,58.7-122.6,58.7c-47.7,0-92.7-21.6-122.6-58.7
		c-29.9-37.1-41.3-85.8-31-132.4c10.2-46.5,41-85.9,83.7-107.1c5.6-2.8,9.3-8.4,9.7-14.6c0.4-6.2-2.6-12.2-7.8-15.7
		c-5.2-3.5-11.9-3.9-17.5-1.1c-38.8,19.3-70,51.1-88.5,90.3C57.6,207,52.9,251.3,62.8,293.5c9.9,42.2,33.8,79.9,67.8,106.8
		c34,26.9,76.1,41.6,119.4,41.6c43.4,0,85.5-14.7,119.4-41.6c34-26.9,57.9-64.6,67.8-106.8s5.2-86.5-13.2-125.8
		C405.5,128.5,374.3,96.6,335.5,77.4L335.5,77.4z"/>
	<path class="st1" d="M249.8,268.1c4.6,0,9.1-1.8,12.4-5.1s5.1-7.7,5.1-12.4v-175c0-6.3-3.3-12-8.8-15.2s-12.1-3.1-17.5,0
		s-8.8,8.9-8.8,15.2v175c0,4.6,1.8,9.1,5.1,12.4S245.1,268.1,249.8,268.1z"/>
</g>
<g class="st0">
	<path class="st1" d="M341,32c-2.2-1.2-4.7-1.3-7.1-0.5c-2.3,0.8-4.2,2.6-5.1,4.9c-0.9,2.3-0.9,4.9,0.2,7.1c1.1,2.2,3,3.9,5.4,4.6
		c46.6,19.5,85.1,54.5,108.8,99.2c23.7,44.6,31.3,96.1,21.3,145.7c-9.9,49.6-36.7,94.2-75.8,126.2c-39.1,32-88.1,49.5-138.6,49.5
		s-99.5-17.5-138.6-49.5c-39.1-32-65.9-76.6-75.8-126.2c-9.9-49.6-2.4-101,21.3-145.7c23.7-44.6,62.2-79.7,108.8-99.2
		c2.4-0.7,4.3-2.4,5.4-4.6c1.1-2.2,1.1-4.8,0.2-7.1c-0.9-2.3-2.8-4.1-5.1-4.9c-2.3-0.8-4.9-0.7-7.1,0.5C108.6,53,67.1,90.8,41.4,139
		C15.8,187.2,7.6,242.9,18.4,296.4c10.7,53.5,39.7,101.7,81.9,136.3c42.2,34.6,95.1,53.5,149.8,53.5s107.5-18.9,149.8-53.5
		c42.2-34.6,71.2-82.8,81.9-136.3c10.7-53.5,2.6-109.1-23.1-157.4C432.9,90.8,391.4,53,341,32L341,32z"/>
	<path class="st1" d="M250,258.8c2.3,0,4.5-0.9,6.2-2.6s2.6-3.9,2.6-6.2V22.5c0-4.8-3.9-8.8-8.8-8.8s-8.8,3.9-8.8,8.8V250
		c0,2.3,0.9,4.5,2.6,6.2S247.7,258.8,250,258.8z"/>
</g>
<path class="st2" d="M195.7,419.2L97.5,477l6.7-113.8L309.8,26.6c2.2-3.6,7-4.8,10.6-2.6l78.4,48c3.6,2.2,4.8,7,2.6,10.6
	L195.7,419.2z"/>
<path class="st2" d="M277,80.3l91.6,56"/>
<path class="st2" d="M103.9,363.2l91.6,56"/>
</svg>
